<mxfile host="app.diagrams.net" agent="Mozilla/5.0 (Macintosh; Intel Mac OS X 10.15; rv:128.0) Gecko/20100101 Firefox/128.0" version="24.7.6">
  <diagram name="Page-1" id="OqP9giW-IASzzQmENpZH">
    <mxGraphModel dx="593" dy="406" grid="1" gridSize="10" guides="1" tooltips="1" connect="1" arrows="1" fold="1" page="1" pageScale="1" pageWidth="850" pageHeight="1100" math="0" shadow="0">
      <root>
        <mxCell id="0" />
        <mxCell id="1" parent="0" />
        <mxCell id="8CZmSmu29urUNPylzuxJ-2" value="" style="ellipse;whiteSpace=wrap;html=1;" vertex="1" parent="1">
          <mxGeometry x="340" y="200" width="40" height="40" as="geometry" />
        </mxCell>
        <mxCell id="8CZmSmu29urUNPylzuxJ-3" value="" style="endArrow=classic;html=1;rounded=0;entryX=0.025;entryY=0.225;entryDx=0;entryDy=0;entryPerimeter=0;" edge="1" parent="1" target="8CZmSmu29urUNPylzuxJ-2">
          <mxGeometry width="50" height="50" relative="1" as="geometry">
            <mxPoint x="240" y="120" as="sourcePoint" />
            <mxPoint x="310" y="240" as="targetPoint" />
          </mxGeometry>
        </mxCell>
        <mxCell id="8CZmSmu29urUNPylzuxJ-6" value="#" style="text;html=1;align=center;verticalAlign=middle;resizable=0;points=[];autosize=1;strokeColor=#d79b00;fillColor=#ffe6cc;" vertex="1" parent="1">
          <mxGeometry x="271" y="180" width="30" height="30" as="geometry" />
        </mxCell>
        <mxCell id="8CZmSmu29urUNPylzuxJ-7" value="" style="ellipse;whiteSpace=wrap;html=1;" vertex="1" parent="1">
          <mxGeometry x="230" y="210" width="40" height="40" as="geometry" />
        </mxCell>
        <mxCell id="8CZmSmu29urUNPylzuxJ-9" value="" style="curved=1;endArrow=classic;html=1;rounded=0;exitX=0;exitY=1;exitDx=0;exitDy=0;entryX=0.269;entryY=0.93;entryDx=0;entryDy=0;entryPerimeter=0;" edge="1" parent="1" source="8CZmSmu29urUNPylzuxJ-7" target="8CZmSmu29urUNPylzuxJ-7">
          <mxGeometry width="50" height="50" relative="1" as="geometry">
            <mxPoint x="234.14213562373084" y="220.00213562373108" as="sourcePoint" />
            <mxPoint x="234.14213562373084" y="220.00213562373108" as="targetPoint" />
            <Array as="points">
              <mxPoint x="210" y="260" />
              <mxPoint x="236" y="270" />
            </Array>
          </mxGeometry>
        </mxCell>
        <mxCell id="8CZmSmu29urUNPylzuxJ-11" value="." style="text;html=1;align=center;verticalAlign=middle;resizable=0;points=[];autosize=1;strokeColor=#d79b00;fillColor=#ffe6cc;" vertex="1" parent="1">
          <mxGeometry x="200" y="270" width="30" height="30" as="geometry" />
        </mxCell>
        <mxCell id="8CZmSmu29urUNPylzuxJ-12" value="" style="curved=1;endArrow=classic;html=1;rounded=0;entryX=0.053;entryY=0.769;entryDx=0;entryDy=0;exitX=0.933;exitY=0.81;exitDx=0;exitDy=0;exitPerimeter=0;entryPerimeter=0;" edge="1" parent="1" source="8CZmSmu29urUNPylzuxJ-7" target="8CZmSmu29urUNPylzuxJ-2">
          <mxGeometry width="50" height="50" relative="1" as="geometry">
            <mxPoint x="620" y="500" as="sourcePoint" />
            <mxPoint x="670" y="450" as="targetPoint" />
            <Array as="points">
              <mxPoint x="300" y="240" />
            </Array>
          </mxGeometry>
        </mxCell>
        <mxCell id="8CZmSmu29urUNPylzuxJ-14" value="" style="curved=1;endArrow=classic;html=1;rounded=0;exitX=0;exitY=0.5;exitDx=0;exitDy=0;entryX=1.017;entryY=0.351;entryDx=0;entryDy=0;entryPerimeter=0;" edge="1" parent="1" source="8CZmSmu29urUNPylzuxJ-2" target="8CZmSmu29urUNPylzuxJ-7">
          <mxGeometry width="50" height="50" relative="1" as="geometry">
            <mxPoint x="370" y="245" as="sourcePoint" />
            <mxPoint x="420" y="195" as="targetPoint" />
            <Array as="points">
              <mxPoint x="310" y="210" />
            </Array>
          </mxGeometry>
        </mxCell>
        <mxCell id="8CZmSmu29urUNPylzuxJ-15" value="\n" style="text;html=1;align=center;verticalAlign=middle;resizable=0;points=[];autosize=1;strokeColor=#d79b00;fillColor=#ffe6cc;" vertex="1" parent="1">
          <mxGeometry x="290" y="245" width="30" height="30" as="geometry" />
        </mxCell>
        <mxCell id="8CZmSmu29urUNPylzuxJ-17" value="" style="curved=1;endArrow=classic;html=1;rounded=0;exitX=0.5;exitY=0;exitDx=0;exitDy=0;entryX=0.5;entryY=1;entryDx=0;entryDy=0;" edge="1" parent="1" source="8CZmSmu29urUNPylzuxJ-2" target="8CZmSmu29urUNPylzuxJ-18">
          <mxGeometry width="50" height="50" relative="1" as="geometry">
            <mxPoint x="430" y="210" as="sourcePoint" />
            <mxPoint x="420" y="100" as="targetPoint" />
            <Array as="points">
              <mxPoint x="370" y="140" />
            </Array>
          </mxGeometry>
        </mxCell>
        <mxCell id="8CZmSmu29urUNPylzuxJ-18" value="ID" style="ellipse;whiteSpace=wrap;html=1;" vertex="1" parent="1">
          <mxGeometry x="350" y="80" width="40" height="40" as="geometry" />
        </mxCell>
        <mxCell id="8CZmSmu29urUNPylzuxJ-19" value="a-z A-Z" style="text;html=1;align=center;verticalAlign=middle;resizable=0;points=[];autosize=1;strokeColor=#d79b00;fillColor=#ffe6cc;" vertex="1" parent="1">
          <mxGeometry x="301" y="140" width="60" height="30" as="geometry" />
        </mxCell>
        <mxCell id="8CZmSmu29urUNPylzuxJ-20" value="" style="curved=1;endArrow=classic;html=1;rounded=0;entryX=0.5;entryY=0;entryDx=0;entryDy=0;" edge="1" parent="1" target="8CZmSmu29urUNPylzuxJ-18">
          <mxGeometry width="50" height="50" relative="1" as="geometry">
            <mxPoint x="370" y="80" as="sourcePoint" />
            <mxPoint x="420" y="30" as="targetPoint" />
            <Array as="points">
              <mxPoint x="350" y="60" />
              <mxPoint x="400" y="50" />
            </Array>
          </mxGeometry>
        </mxCell>
        <mxCell id="8CZmSmu29urUNPylzuxJ-21" value="a-z A-Z" style="text;html=1;align=center;verticalAlign=middle;resizable=0;points=[];autosize=1;strokeColor=#d79b00;fillColor=#ffe6cc;" vertex="1" parent="1">
          <mxGeometry x="350" y="20" width="60" height="30" as="geometry" />
        </mxCell>
        <mxCell id="8CZmSmu29urUNPylzuxJ-22" value="" style="curved=1;endArrow=classic;html=1;rounded=0;exitX=1;exitY=0;exitDx=0;exitDy=0;entryX=0;entryY=1;entryDx=0;entryDy=0;" edge="1" parent="1" source="8CZmSmu29urUNPylzuxJ-2" target="8CZmSmu29urUNPylzuxJ-23">
          <mxGeometry width="50" height="50" relative="1" as="geometry">
            <mxPoint x="390" y="200" as="sourcePoint" />
            <mxPoint x="440" y="150" as="targetPoint" />
            <Array as="points">
              <mxPoint x="390" y="150" />
            </Array>
          </mxGeometry>
        </mxCell>
        <mxCell id="8CZmSmu29urUNPylzuxJ-23" value="&lt;div&gt;NUM&lt;/div&gt;" style="ellipse;whiteSpace=wrap;html=1;" vertex="1" parent="1">
          <mxGeometry x="435" y="95" width="40" height="40" as="geometry" />
        </mxCell>
        <mxCell id="8CZmSmu29urUNPylzuxJ-24" value="0-9" style="text;html=1;align=center;verticalAlign=middle;resizable=0;points=[];autosize=1;strokeColor=#d79b00;fillColor=#ffe6cc;" vertex="1" parent="1">
          <mxGeometry x="410" y="150" width="40" height="30" as="geometry" />
        </mxCell>
        <mxCell id="8CZmSmu29urUNPylzuxJ-25" value="" style="curved=1;endArrow=classic;html=1;rounded=0;entryX=0.5;entryY=0;entryDx=0;entryDy=0;" edge="1" parent="1">
          <mxGeometry width="50" height="50" relative="1" as="geometry">
            <mxPoint x="465" y="95" as="sourcePoint" />
            <mxPoint x="465" y="95" as="targetPoint" />
            <Array as="points">
              <mxPoint x="445" y="75" />
              <mxPoint x="495" y="65" />
            </Array>
          </mxGeometry>
        </mxCell>
        <mxCell id="8CZmSmu29urUNPylzuxJ-26" value="0-9" style="text;html=1;align=center;verticalAlign=middle;resizable=0;points=[];autosize=1;strokeColor=#d79b00;fillColor=#ffe6cc;" vertex="1" parent="1">
          <mxGeometry x="485" y="65" width="40" height="30" as="geometry" />
        </mxCell>
        <mxCell id="8CZmSmu29urUNPylzuxJ-27" value="" style="curved=1;endArrow=classic;html=1;rounded=0;exitX=0.991;exitY=0.369;exitDx=0;exitDy=0;exitPerimeter=0;entryX=0.053;entryY=0.822;entryDx=0;entryDy=0;entryPerimeter=0;" edge="1" parent="1" source="8CZmSmu29urUNPylzuxJ-2" target="8CZmSmu29urUNPylzuxJ-28">
          <mxGeometry width="50" height="50" relative="1" as="geometry">
            <mxPoint x="450" y="260" as="sourcePoint" />
            <mxPoint x="490" y="200" as="targetPoint" />
            <Array as="points">
              <mxPoint x="450" y="210" />
            </Array>
          </mxGeometry>
        </mxCell>
        <mxCell id="8CZmSmu29urUNPylzuxJ-28" value="&lt;div&gt;WS&lt;/div&gt;" style="ellipse;whiteSpace=wrap;html=1;" vertex="1" parent="1">
          <mxGeometry x="480" y="165" width="40" height="40" as="geometry" />
        </mxCell>
        <mxCell id="8CZmSmu29urUNPylzuxJ-29" value="" style="curved=1;endArrow=classic;html=1;rounded=0;entryX=0.5;entryY=0;entryDx=0;entryDy=0;" edge="1" parent="1">
          <mxGeometry width="50" height="50" relative="1" as="geometry">
            <mxPoint x="510" y="165" as="sourcePoint" />
            <mxPoint x="510" y="165" as="targetPoint" />
            <Array as="points">
              <mxPoint x="490" y="145" />
              <mxPoint x="540" y="135" />
            </Array>
          </mxGeometry>
        </mxCell>
        <mxCell id="8CZmSmu29urUNPylzuxJ-30" value="&quot; &quot;" style="text;html=1;align=center;verticalAlign=middle;resizable=0;points=[];autosize=1;strokeColor=#d79b00;fillColor=#ffe6cc;" vertex="1" parent="1">
          <mxGeometry x="530" y="140" width="40" height="30" as="geometry" />
        </mxCell>
        <mxCell id="8CZmSmu29urUNPylzuxJ-31" value="&quot; &quot;" style="text;html=1;align=center;verticalAlign=middle;resizable=0;points=[];autosize=1;strokeColor=#d79b00;fillColor=#ffe6cc;" vertex="1" parent="1">
          <mxGeometry x="440" y="210" width="40" height="30" as="geometry" />
        </mxCell>
        <mxCell id="8CZmSmu29urUNPylzuxJ-32" value="" style="curved=1;endArrow=classic;html=1;rounded=0;exitX=0.986;exitY=0.618;exitDx=0;exitDy=0;exitPerimeter=0;entryX=0.038;entryY=0.775;entryDx=0;entryDy=0;entryPerimeter=0;" edge="1" parent="1" source="8CZmSmu29urUNPylzuxJ-2" target="8CZmSmu29urUNPylzuxJ-34">
          <mxGeometry width="50" height="50" relative="1" as="geometry">
            <mxPoint x="480" y="330" as="sourcePoint" />
            <mxPoint x="510" y="300" as="targetPoint" />
            <Array as="points">
              <mxPoint x="450" y="260" />
              <mxPoint x="560" y="260" />
            </Array>
          </mxGeometry>
        </mxCell>
        <mxCell id="8CZmSmu29urUNPylzuxJ-33" value="(" style="text;html=1;align=center;verticalAlign=middle;resizable=0;points=[];autosize=1;strokeColor=#d79b00;fillColor=#ffe6cc;" vertex="1" parent="1">
          <mxGeometry x="550" y="210" width="30" height="30" as="geometry" />
        </mxCell>
        <mxCell id="8CZmSmu29urUNPylzuxJ-34" value="&lt;div&gt;LPAR&lt;/div&gt;" style="ellipse;whiteSpace=wrap;html=1;" vertex="1" parent="1">
          <mxGeometry x="610" y="190" width="40" height="40" as="geometry" />
        </mxCell>
        <mxCell id="8CZmSmu29urUNPylzuxJ-35" value="" style="curved=1;endArrow=classic;html=1;rounded=0;exitX=0.959;exitY=0.728;exitDx=0;exitDy=0;exitPerimeter=0;entryX=-0.025;entryY=0.697;entryDx=0;entryDy=0;entryPerimeter=0;" edge="1" parent="1" source="8CZmSmu29urUNPylzuxJ-2" target="8CZmSmu29urUNPylzuxJ-36">
          <mxGeometry width="50" height="50" relative="1" as="geometry">
            <mxPoint x="460" y="320" as="sourcePoint" />
            <mxPoint x="620" y="310" as="targetPoint" />
            <Array as="points">
              <mxPoint x="460" y="270" />
              <mxPoint x="570" y="280" />
            </Array>
          </mxGeometry>
        </mxCell>
        <mxCell id="8CZmSmu29urUNPylzuxJ-36" value="&lt;div&gt;RPAR&lt;/div&gt;" style="ellipse;whiteSpace=wrap;html=1;" vertex="1" parent="1">
          <mxGeometry x="630" y="230" width="40" height="40" as="geometry" />
        </mxCell>
        <mxCell id="8CZmSmu29urUNPylzuxJ-37" value=")" style="text;html=1;align=center;verticalAlign=middle;resizable=0;points=[];autosize=1;strokeColor=#d79b00;fillColor=#ffe6cc;" vertex="1" parent="1">
          <mxGeometry x="600" y="270" width="30" height="30" as="geometry" />
        </mxCell>
        <mxCell id="8CZmSmu29urUNPylzuxJ-38" value="" style="curved=1;endArrow=classic;html=1;rounded=0;exitX=1;exitY=1;exitDx=0;exitDy=0;entryX=0;entryY=0.5;entryDx=0;entryDy=0;" edge="1" parent="1" source="8CZmSmu29urUNPylzuxJ-2" target="8CZmSmu29urUNPylzuxJ-40">
          <mxGeometry width="50" height="50" relative="1" as="geometry">
            <mxPoint x="520" y="350" as="sourcePoint" />
            <mxPoint x="650" y="320" as="targetPoint" />
            <Array as="points">
              <mxPoint x="450" y="280" />
              <mxPoint x="520" y="300" />
            </Array>
          </mxGeometry>
        </mxCell>
        <mxCell id="8CZmSmu29urUNPylzuxJ-39" value="{" style="text;html=1;align=center;verticalAlign=middle;resizable=0;points=[];autosize=1;strokeColor=#d79b00;fillColor=#ffe6cc;" vertex="1" parent="1">
          <mxGeometry x="550" y="310" width="30" height="30" as="geometry" />
        </mxCell>
        <mxCell id="8CZmSmu29urUNPylzuxJ-40" value="&lt;div&gt;&amp;nbsp;LBRACE&lt;/div&gt;" style="ellipse;whiteSpace=wrap;html=1;" vertex="1" parent="1">
          <mxGeometry x="660" y="300" width="50" height="40" as="geometry" />
        </mxCell>
        <mxCell id="8CZmSmu29urUNPylzuxJ-42" value="&lt;div&gt;&amp;nbsp;RBRACE&lt;/div&gt;" style="ellipse;whiteSpace=wrap;html=1;" vertex="1" parent="1">
          <mxGeometry x="660" y="360" width="50" height="40" as="geometry" />
        </mxCell>
        <mxCell id="8CZmSmu29urUNPylzuxJ-43" value="" style="curved=1;endArrow=classic;html=1;rounded=0;exitX=0.812;exitY=0.906;exitDx=0;exitDy=0;entryX=0.053;entryY=0.383;entryDx=0;entryDy=0;entryPerimeter=0;exitPerimeter=0;" edge="1" parent="1" source="8CZmSmu29urUNPylzuxJ-2" target="8CZmSmu29urUNPylzuxJ-42">
          <mxGeometry width="50" height="50" relative="1" as="geometry">
            <mxPoint x="480" y="370" as="sourcePoint" />
            <mxPoint x="530" y="320" as="targetPoint" />
            <Array as="points">
              <mxPoint x="450" y="300" />
              <mxPoint x="580" y="373" />
            </Array>
          </mxGeometry>
        </mxCell>
        <mxCell id="8CZmSmu29urUNPylzuxJ-44" value="}" style="text;html=1;align=center;verticalAlign=middle;resizable=0;points=[];autosize=1;strokeColor=#d79b00;fillColor=#ffe6cc;" vertex="1" parent="1">
          <mxGeometry x="580" y="370" width="30" height="30" as="geometry" />
        </mxCell>
        <mxCell id="8CZmSmu29urUNPylzuxJ-45" value="&lt;div&gt;COLON&lt;/div&gt;" style="ellipse;whiteSpace=wrap;html=1;" vertex="1" parent="1">
          <mxGeometry x="650" y="420" width="50" height="40" as="geometry" />
        </mxCell>
        <mxCell id="8CZmSmu29urUNPylzuxJ-46" value="&lt;div&gt;COMMA&lt;/div&gt;" style="ellipse;whiteSpace=wrap;html=1;" vertex="1" parent="1">
          <mxGeometry x="650" y="470" width="50" height="40" as="geometry" />
        </mxCell>
        <mxCell id="8CZmSmu29urUNPylzuxJ-47" value="" style="curved=1;endArrow=classic;html=1;rounded=0;entryX=0;entryY=0.5;entryDx=0;entryDy=0;exitX=0.77;exitY=0.955;exitDx=0;exitDy=0;exitPerimeter=0;" edge="1" parent="1" source="8CZmSmu29urUNPylzuxJ-2" target="8CZmSmu29urUNPylzuxJ-45">
          <mxGeometry width="50" height="50" relative="1" as="geometry">
            <mxPoint x="400" y="420" as="sourcePoint" />
            <mxPoint x="450" y="370" as="targetPoint" />
            <Array as="points">
              <mxPoint x="450" y="420" />
            </Array>
          </mxGeometry>
        </mxCell>
        <mxCell id="8CZmSmu29urUNPylzuxJ-48" value=":" style="text;html=1;align=center;verticalAlign=middle;resizable=0;points=[];autosize=1;strokeColor=#d79b00;fillColor=#ffe6cc;" vertex="1" parent="1">
          <mxGeometry x="600" y="440" width="30" height="30" as="geometry" />
        </mxCell>
        <mxCell id="8CZmSmu29urUNPylzuxJ-49" value="" style="curved=1;endArrow=classic;html=1;rounded=0;exitX=0.693;exitY=0.979;exitDx=0;exitDy=0;exitPerimeter=0;entryX=0;entryY=0.5;entryDx=0;entryDy=0;" edge="1" parent="1" source="8CZmSmu29urUNPylzuxJ-2" target="8CZmSmu29urUNPylzuxJ-46">
          <mxGeometry width="50" height="50" relative="1" as="geometry">
            <mxPoint x="370" y="260" as="sourcePoint" />
            <mxPoint x="480" y="440" as="targetPoint" />
            <Array as="points">
              <mxPoint x="480" y="490" />
            </Array>
          </mxGeometry>
        </mxCell>
        <mxCell id="8CZmSmu29urUNPylzuxJ-50" value="," style="text;html=1;align=center;verticalAlign=middle;resizable=0;points=[];autosize=1;strokeColor=#d79b00;fillColor=#ffe6cc;" vertex="1" parent="1">
          <mxGeometry x="535" y="475" width="30" height="30" as="geometry" />
        </mxCell>
        <mxCell id="8CZmSmu29urUNPylzuxJ-51" value="" style="curved=1;endArrow=classic;html=1;rounded=0;exitX=0.647;exitY=1.006;exitDx=0;exitDy=0;exitPerimeter=0;" edge="1" parent="1" source="8CZmSmu29urUNPylzuxJ-2">
          <mxGeometry width="50" height="50" relative="1" as="geometry">
            <mxPoint x="380" y="300" as="sourcePoint" />
            <mxPoint x="420" y="480" as="targetPoint" />
            <Array as="points">
              <mxPoint x="410" y="420" />
            </Array>
          </mxGeometry>
        </mxCell>
        <mxCell id="8CZmSmu29urUNPylzuxJ-52" value="" style="curved=1;endArrow=classic;html=1;rounded=0;exitX=0.686;exitY=0.993;exitDx=0;exitDy=0;exitPerimeter=0;" edge="1" parent="1" source="8CZmSmu29urUNPylzuxJ-55">
          <mxGeometry width="50" height="50" relative="1" as="geometry">
            <mxPoint x="450" y="600" as="sourcePoint" />
            <mxPoint x="450" y="550" as="targetPoint" />
            <Array as="points">
              <mxPoint x="450" y="550" />
            </Array>
          </mxGeometry>
        </mxCell>
        <mxCell id="8CZmSmu29urUNPylzuxJ-53" value="-" style="text;html=1;align=center;verticalAlign=middle;resizable=0;points=[];autosize=1;strokeColor=#d79b00;fillColor=#ffe6cc;" vertex="1" parent="1">
          <mxGeometry x="415" y="425" width="30" height="30" as="geometry" />
        </mxCell>
        <mxCell id="8CZmSmu29urUNPylzuxJ-55" value="" style="ellipse;whiteSpace=wrap;html=1;" vertex="1" parent="1">
          <mxGeometry x="400" y="480" width="40" height="40" as="geometry" />
        </mxCell>
        <mxCell id="8CZmSmu29urUNPylzuxJ-56" value="ARROW" style="ellipse;whiteSpace=wrap;html=1;" vertex="1" parent="1">
          <mxGeometry x="445" y="540" width="55" height="40" as="geometry" />
        </mxCell>
        <mxCell id="8CZmSmu29urUNPylzuxJ-57" value="&amp;gt;" style="text;html=1;align=center;verticalAlign=middle;resizable=0;points=[];autosize=1;strokeColor=#d79b00;fillColor=#ffe6cc;" vertex="1" parent="1">
          <mxGeometry x="445" y="505" width="30" height="30" as="geometry" />
        </mxCell>
        <mxCell id="8CZmSmu29urUNPylzuxJ-61" value="" style="ellipse;whiteSpace=wrap;html=1;" vertex="1" parent="1">
          <mxGeometry x="301" y="360" width="40" height="40" as="geometry" />
        </mxCell>
        <mxCell id="8CZmSmu29urUNPylzuxJ-63" value="" style="curved=1;endArrow=classic;html=1;rounded=0;exitX=0.324;exitY=0.999;exitDx=0;exitDy=0;exitPerimeter=0;entryX=0.5;entryY=0;entryDx=0;entryDy=0;" edge="1" parent="1" source="8CZmSmu29urUNPylzuxJ-2" target="8CZmSmu29urUNPylzuxJ-61">
          <mxGeometry width="50" height="50" relative="1" as="geometry">
            <mxPoint x="340" y="240" as="sourcePoint" />
            <mxPoint x="310" y="360" as="targetPoint" />
            <Array as="points">
              <mxPoint x="340" y="300" />
            </Array>
          </mxGeometry>
        </mxCell>
        <mxCell id="8CZmSmu29urUNPylzuxJ-64" value="&#39;, &quot;" style="text;html=1;align=center;verticalAlign=middle;resizable=0;points=[];autosize=1;strokeColor=#d79b00;fillColor=#ffe6cc;" vertex="1" parent="1">
          <mxGeometry x="285" y="310" width="40" height="30" as="geometry" />
        </mxCell>
        <mxCell id="8CZmSmu29urUNPylzuxJ-67" value="" style="curved=1;endArrow=classic;html=1;rounded=0;exitX=0.353;exitY=0.985;exitDx=0;exitDy=0;exitPerimeter=0;entryX=1;entryY=0;entryDx=0;entryDy=0;" edge="1" parent="1" source="8CZmSmu29urUNPylzuxJ-61" target="8CZmSmu29urUNPylzuxJ-68">
          <mxGeometry width="50" height="50" relative="1" as="geometry">
            <mxPoint x="270" y="470" as="sourcePoint" />
            <mxPoint x="290" y="440" as="targetPoint" />
            <Array as="points">
              <mxPoint x="310" y="420" />
            </Array>
          </mxGeometry>
        </mxCell>
        <mxCell id="8CZmSmu29urUNPylzuxJ-68" value="" style="ellipse;whiteSpace=wrap;html=1;" vertex="1" parent="1">
          <mxGeometry x="250" y="435" width="40" height="40" as="geometry" />
        </mxCell>
        <mxCell id="8CZmSmu29urUNPylzuxJ-69" value="&#39;, &quot;" style="text;html=1;align=center;verticalAlign=middle;resizable=0;points=[];autosize=1;strokeColor=#d79b00;fillColor=#ffe6cc;" vertex="1" parent="1">
          <mxGeometry x="310" y="420" width="40" height="30" as="geometry" />
        </mxCell>
        <mxCell id="8CZmSmu29urUNPylzuxJ-70" value="" style="curved=1;endArrow=classic;html=1;rounded=0;" edge="1" parent="1">
          <mxGeometry width="50" height="50" relative="1" as="geometry">
            <mxPoint x="300" y="390" as="sourcePoint" />
            <mxPoint x="300" y="380" as="targetPoint" />
            <Array as="points">
              <mxPoint x="270" y="390" />
              <mxPoint x="280" y="370" />
            </Array>
          </mxGeometry>
        </mxCell>
        <mxCell id="8CZmSmu29urUNPylzuxJ-72" value=". - &quot;, . - &#39;" style="text;html=1;align=center;verticalAlign=middle;resizable=0;points=[];autosize=1;strokeColor=#d79b00;fillColor=#ffe6cc;" vertex="1" parent="1">
          <mxGeometry x="211" y="365" width="60" height="30" as="geometry" />
        </mxCell>
      </root>
    </mxGraphModel>
  </diagram>
</mxfile>
